<?xml version="1.0" encoding="iso-8859-1"?>
<!-- Generator: Adobe Illustrator 16.0.0, SVG Export Plug-In . SVG Version: 6.00 Build 0)  -->
<!DOCTYPE svg PUBLIC "-//W3C//DTD SVG 1.1//EN" "http://www.w3.org/Graphics/SVG/1.1/DTD/svg11.dtd">
<svg version="1.1" id="Capa_1" xmlns="http://www.w3.org/2000/svg" xmlns:xlink="http://www.w3.org/1999/xlink" x="0px" y="0px"
	 width="529.462px" height="529.463px" viewBox="0 0 529.462 529.463" style="enable-background:new 0 0 529.462 529.463;"
	 xml:space="preserve">
<g>
	<g fill='rgb(237,0,180)' fill-opacity='.618'>
		<path d="M529.462,455.894L396.747,323.179c-9.066,14.752-19.896,28.564-32.448,41.117c-12.552,12.553-26.364,23.381-41.117,32.447
			L455.897,529.46L529.462,455.894z"/>
		<path d="M353.475,353.476c12.705-12.705,23.406-26.652,32.121-41.447c46.738-79.374,36.038-183.221-32.121-251.379
			C313.043,20.217,260.054,0.003,207.061,0.003c-52.99,0-105.983,20.214-146.415,60.646c-80.86,80.86-80.86,211.965,0,292.827
			c40.432,40.432,93.422,60.646,146.415,60.646c36.341,0,72.678-9.514,104.964-28.529
			C326.823,376.882,340.77,366.181,353.475,353.476z M80.688,124.41l-3.066-2.01l-6.398-4.195
			c24.309-37.069,61.601-62.458,105.001-71.481c43.403-9.027,87.724-0.603,124.793,23.703
			c71.365,46.796,94.789,139.591,56.935,213.964c-2.739,5.381-5.769,10.67-9.153,15.832l-12.797-8.389l0,0
			c4.015-6.121,7.494-12.438,10.509-18.881c31.202-66.714,9.467-148.187-53.884-189.727C258.97,61.154,218.734,53.513,179.34,61.708
			c-39.4,8.191-73.253,31.236-95.319,64.893L80.688,124.41z"/>
	</g>
</g>
<g transform='translate(50,0)'>
  <g fill='rgb(0,180,237)' fill-opacity='.618'>
    <path d="M529.462,455.894L396.747,323.179c-9.066,14.752-19.896,28.564-32.448,41.117c-12.552,12.553-26.364,23.381-41.117,32.447
      L455.897,529.46L529.462,455.894z"/>
    <path d="M353.475,353.476c12.705-12.705,23.406-26.652,32.121-41.447c46.738-79.374,36.038-183.221-32.121-251.379
      C313.043,20.217,260.054,0.003,207.061,0.003c-52.99,0-105.983,20.214-146.415,60.646c-80.86,80.86-80.86,211.965,0,292.827
      c40.432,40.432,93.422,60.646,146.415,60.646c36.341,0,72.678-9.514,104.964-28.529
      C326.823,376.882,340.77,366.181,353.475,353.476z M80.688,124.41l-3.066-2.01l-6.398-4.195
      c24.309-37.069,61.601-62.458,105.001-71.481c43.403-9.027,87.724-0.603,124.793,23.703
      c71.365,46.796,94.789,139.591,56.935,213.964c-2.739,5.381-5.769,10.67-9.153,15.832l-12.797-8.389l0,0
      c4.015-6.121,7.494-12.438,10.509-18.881c31.202-66.714,9.467-148.187-53.884-189.727C258.97,61.154,218.734,53.513,179.34,61.708
      c-39.4,8.191-73.253,31.236-95.319,64.893L80.688,124.41z"/>
  </g>
</g>
</svg>
