<?xml version="1.0" standalone="no"?>
<!DOCTYPE svg PUBLIC "-//W3C//DTD SVG 20010904//EN"
 "http://www.w3.org/TR/2001/REC-SVG-20010904/DTD/svg10.dtd">
<svg version="1.0" xmlns="http://www.w3.org/2000/svg"
 width="700.000000pt" height="700.000000pt" viewBox="0 0 700.000000 700.000000"
 preserveAspectRatio="xMidYMid meet">
<metadata>
Created by potrace 1.11, written by Peter Selinger 2001-2013
</metadata>
<g transform="translate(0.000000,700.000000) scale(0.100000,-0.100000)"
fill="#000000" stroke="none">
<path d="M2600 6993 c-357 -16 -726 -112 -1065 -278 -761 -373 -1296 -1061
-1474 -1895 -74 -348 -74 -755 0 -1115 71 -343 205 -661 402 -957 639 -958
1788 -1407 2922 -1143 365 85 763 282 1075 531 110 88 317 295 403 404 539
676 733 1554 526 2380 -197 789 -719 1439 -1444 1795 -336 165 -651 249 -1030
275 -144 9 -172 10 -315 3z m507 -587 c614 -91 1174 -458 1521 -996 229 -356
353 -813 338 -1240 -11 -318 -69 -567 -197 -850 -33 -74 -138 -269 -154 -288
-2 -2 -41 22 -88 53 l-86 57 39 64 c107 174 195 398 240 608 59 279 57 589 -5
862 -153 666 -632 1204 -1275 1432 -241 86 -450 117 -715 109 -261 -9 -418
-38 -648 -122 -338 -122 -661 -363 -882 -657 -43 -57 -80 -104 -84 -105 -3 -2
-43 21 -89 50 l-83 53 59 82 c357 500 933 833 1557 901 119 13 424 6 552 -13z"/>
<path d="M5178 2623 c-210 -309 -492 -591 -801 -801 -53 -36 -96 -68 -95 -71
2 -3 396 -397 876 -876 l872 -870 485 485 485 485 -874 873 c-480 479 -876
872 -878 872 -2 0 -34 -44 -70 -97z"/>
</g>
</svg>
